<svg width="152" height="42" viewBox="0 0 152 42" fill="none" xmlns="http://www.w3.org/2000/svg">
<path d="M140.908 30.9795H138.235L132.774 22.0919L127.238 30.9795H124.752L131.494 20.3972L125.204 10.7187H127.803L132.849 18.7402L137.933 10.7187H140.457L134.167 20.3219L140.908 30.9795ZM120.836 28.8706H111.911V21.414H120.309V19.3427H111.911V12.8276H120.836V10.7187H109.538V30.9795H120.836V28.8706ZM98.6921 12.8276H105.094V10.7187H89.9174V12.8276H96.3196V30.9795H98.6921V12.8276ZM85.5866 22.2048C84.7957 21.3387 83.327 20.5102 81.1804 19.757C79.9 19.3051 78.9585 18.8908 78.356 18.5142C77.7534 18.1376 77.3015 17.7234 77.0379 17.2714C76.7743 16.8195 76.6613 16.2546 76.6613 15.5391C76.6613 14.5976 77.0002 13.8444 77.7158 13.3172C78.4313 12.79 79.4104 12.5264 80.6532 12.5264C82.2349 12.5264 83.8543 12.8653 85.5489 13.5808L86.3021 11.5472C84.6074 10.794 82.7621 10.4551 80.7285 10.4551C78.8079 10.4551 77.2262 10.907 76.0587 11.8485C74.8913 12.79 74.2887 13.9951 74.2887 15.5768C74.2887 17.0455 74.703 18.2506 75.4939 19.1921C76.2847 20.1336 77.6404 20.9244 79.5234 21.6023C80.8792 22.0919 81.896 22.5061 82.5362 22.8827C83.214 23.2593 83.666 23.6736 83.9672 24.1255C84.2685 24.5774 84.3815 25.1423 84.3815 25.8578C84.3815 26.9123 83.9672 27.7408 83.1764 28.3433C82.3855 28.9459 81.1804 29.2472 79.6364 29.2472C78.6949 29.2472 77.7158 29.1342 76.7366 28.9459C75.7575 28.7576 74.8536 28.4563 74.0251 28.1174V30.377C75.3056 30.9795 77.1509 31.3185 79.5611 31.3185C81.783 31.3185 83.553 30.8289 84.8334 29.8121C86.1138 28.7953 86.7917 27.4395 86.7917 25.6319C86.754 24.2008 86.3774 23.071 85.5866 22.2048ZM69.1294 28.8706H60.2041V21.414H68.6022V19.3427H60.2041V12.8276H69.1294V10.7187H57.8315V30.9419H69.1294V28.8706ZM46.9856 12.8276H53.3877V10.7187H38.2109V12.8276H44.6131V30.9795H46.9856V12.8276Z" fill="black"/>
<path d="M144.486 12.6393C144.787 12.1498 145.201 11.7355 145.691 11.4342C146.18 11.1329 146.745 10.9823 147.348 10.9823C147.95 10.9823 148.515 11.1329 149.005 11.4342C149.494 11.7355 149.909 12.1498 150.21 12.6393C150.511 13.1289 150.662 13.6938 150.662 14.2963C150.662 14.8989 150.511 15.4638 150.21 15.9534C149.909 16.4429 149.494 16.8572 149.005 17.1585C148.515 17.4597 147.95 17.6104 147.348 17.6104C146.745 17.6104 146.218 17.4597 145.691 17.1585C145.163 16.8572 144.787 16.4429 144.486 15.9534C144.184 15.4261 144.034 14.8989 144.034 14.2963C144.034 13.6938 144.184 13.1289 144.486 12.6393ZM143.996 16.1793C144.335 16.7819 144.787 17.2338 145.389 17.6104C145.992 17.9493 146.632 18.1376 147.348 18.1376C148.063 18.1376 148.703 17.9493 149.306 17.6104C149.909 17.2714 150.36 16.7819 150.699 16.1793C151.038 15.5768 151.189 14.9742 151.189 14.2963C151.189 13.6185 151.001 12.9783 150.662 12.3757C150.323 11.7732 149.833 11.3212 149.231 10.9823C148.628 10.6434 147.988 10.4551 147.31 10.4551C146.632 10.4551 145.992 10.6434 145.389 10.9823C144.787 11.3212 144.335 11.8108 143.996 12.3757C143.657 12.9406 143.469 13.6185 143.469 14.2963C143.506 14.9742 143.657 15.5768 143.996 16.1793ZM148.515 12.3381C148.252 12.1121 147.837 11.9991 147.272 11.9991H145.917V16.5559H146.67V14.7483H147.348L148.402 16.5559H149.268L148.063 14.5223C148.327 14.4093 148.515 14.2587 148.666 14.0704C148.816 13.8444 148.892 13.6185 148.892 13.3549C148.892 12.9029 148.779 12.564 148.515 12.3381ZM146.67 12.6393H147.197C147.498 12.6393 147.762 12.677 147.875 12.79C148.026 12.9029 148.101 13.0912 148.101 13.3549C148.101 13.5808 148.026 13.7691 147.837 13.8821C147.687 14.0327 147.461 14.108 147.159 14.108H146.67V12.6393Z" fill="black"/>
<path fill-rule="evenodd" clip-rule="evenodd" d="M6.60416 18.5872C4.92862 16.8894 3.9233 15.5489 3.94565 14.0521C3.94565 12.734 4.41479 11.9968 6.26905 10.0532L15.4733 0.53617C15.652 0.201064 15.7861 0 15.7861 0L5.04033 10.8574C2.49352 13.4936 0.929688 17.0681 0.929688 21C0.929688 24.8872 2.47118 28.4394 4.95096 31.0532L15.7861 42C15.7861 42 18.3105 37.934 18.3105 34.4266C18.3105 30.9415 16.9701 29.0202 15.7861 27.7915C14.5797 26.5851 8.25735 20.3074 6.60416 18.5872Z" fill="#67B346"/>
<path fill-rule="evenodd" clip-rule="evenodd" d="M24.9681 23.3904C26.6436 25.0883 27.649 26.4287 27.6266 27.9255C27.6266 29.2436 27.1575 29.9809 25.3032 31.9245L16.099 41.4415C15.9202 41.7766 15.7862 41.9777 15.7862 41.9777L26.5319 31.1202C29.0787 28.484 30.6426 24.9096 30.6426 20.9777C30.6426 17.0904 29.1011 13.5383 26.6213 10.9245L15.7862 7.62939e-06C15.7862 7.62939e-06 13.2617 4.06597 13.2617 7.57341C13.2617 11.0585 14.6021 12.9798 15.7862 14.2085C16.9926 15.4149 23.2926 21.6926 24.9681 23.3904Z" fill="#4982CF"/>
</svg>
