<svg width="110" height="22" viewBox="0 0 110 22" fill="none" xmlns="http://www.w3.org/2000/svg">
<path d="M15.704 10.9577C16.5501 10.5581 17.2646 9.92536 17.7637 9.13386C18.2628 8.34235 18.5257 7.42489 18.5216 6.48918C18.5216 2.73309 15.9921 0.400406 10.297 0.400406H0.785156V21.6064H10.8433C16.4471 21.6064 18.9475 19.2737 18.9475 15.5176C18.9286 14.5194 18.6089 13.5501 18.0302 12.7365C17.4516 11.923 16.6408 11.303 15.704 10.9577ZM6.54091 5.0972H10.1765C11.7481 5.0972 12.5541 5.68692 12.5541 6.85364C12.5541 8.03532 11.7518 8.62579 10.1593 8.62579H6.54091V5.0972ZM10.5245 16.9417L6.54091 16.926V13.2904H10.5245C12.1754 13.2904 13.0248 13.9116 13.0248 15.109C13.0226 16.3356 12.1754 16.9417 10.5245 16.9417Z" fill="#283583"/>
<path d="M40.2092 7.66862V7.608C40.2092 5.51704 39.7647 3.91252 38.5224 2.66873C37.1005 1.24681 34.8554 0.39666 31.6142 0.39666H21.5859V21.6086H27.4644V15.186H30.0695L34.3412 21.6101H41.0976L36.0356 14.2132C38.6721 13.0906 40.2092 10.9398 40.2092 7.66862ZM34.5216 8.06152C34.5216 9.60766 33.3399 10.5776 31.3709 10.5776H27.4629V5.45717H31.3417C33.2808 5.45717 34.5231 6.30658 34.5231 8.00164V8.06226L34.5216 8.06152Z" fill="#283583"/>
<path d="M55.862 12.7898C55.862 15.2272 54.4678 16.4852 52.2422 16.4852C50.0165 16.4852 48.6223 15.2272 48.6223 12.7898V0.400406H42.8516V12.9574C42.8516 18.7289 46.1541 22 52.2422 22C58.3302 22 61.6328 18.7289 61.6328 12.9574V0.400406H55.8613L55.862 12.7898Z" fill="#283583"/>
<path d="M107.042 2.7578C106.979 2.69269 107.107 2.82067 107.042 2.7578L107.013 2.73086C106.841 2.56772 106.662 2.40682 106.476 2.25714L106.459 2.24143C104.463 0.707944 101.996 -0.0822458 99.4807 0.00677829C92.8156 0.00677829 88.1211 4.55166 88.1211 11.0079C88.1211 17.4439 92.8179 21.9895 99.4807 21.9895C104.463 21.9895 109.721 18.0815 109.721 11.0079C109.723 10.3698 109.683 9.73225 109.6 9.09953H102.129L99.0571 13.3114H104.026C103.767 14.3662 103.143 15.2952 102.264 15.933C101.385 16.5708 100.308 16.8763 99.2247 16.7951C96.5126 16.7951 94.0145 14.871 94.0145 11.0079C94.0145 7.68959 96.1347 5.38834 99.1334 5.38834C100.256 5.34274 101.367 5.63384 102.324 6.22428C102.422 6.28714 102.578 6.40314 102.672 6.47199L103.006 6.74664L103.699 7.32513L107.042 2.7578Z" fill="#283583"/>
<path d="M83.4182 2.75699C83.3553 2.69188 83.481 2.81985 83.4182 2.75699L83.389 2.73005C83.2168 2.5669 83.038 2.406 82.8524 2.25633L82.8344 2.24061C80.8397 0.70806 78.3735 -0.0818255 75.8596 0.00671007C69.1946 0.00671007 64.5 4.55159 64.5 11.0078C64.5 17.4438 69.1968 21.9895 75.8596 21.9895C80.8423 21.9895 86.0996 18.0815 86.0996 11.0078C86.1021 10.3697 86.0619 9.73217 85.9791 9.09947H78.5088L75.4368 13.3113H80.406C80.1471 14.3662 79.5226 15.2951 78.6435 15.9329C77.7643 16.5708 76.6875 16.8762 75.6044 16.795C72.8915 16.795 70.3942 14.8709 70.3942 11.0078C70.3942 7.68953 72.5143 5.38827 75.5131 5.38827C76.6357 5.34155 77.7467 5.63135 78.7034 6.22047C78.8014 6.28333 78.9579 6.39933 79.0522 6.46818L79.3852 6.74283L80.0782 7.32133L83.4182 2.75699Z" fill="#283583"/>
</svg>
