<svg width="240" height="26" viewBox="0 0 240 26" fill="none" xmlns="http://www.w3.org/2000/svg">
<g clip-path="url(#clip0_2449_5224)">
<path fill-rule="evenodd" clip-rule="evenodd" d="M26.2933 19.1685V6.6287L19.9896 3.4775V16.4437C20.6539 16.8103 21.3286 17.1652 22.0215 17.4967C23.4039 18.1548 24.8314 18.7134 26.2933 19.1685ZM10.9728 9.4068C12.725 11.3077 14.6841 13.0069 16.8137 14.4729V1.8889L13.5858 0.275597L0.880859 6.6287V17.3134L9.84176 8.1718L10.9728 9.4068ZM26.2933 22.49C24.356 21.9438 22.4693 21.2322 20.6539 20.3632C20.429 20.2566 20.2119 20.1422 19.9909 20.0317V25.6893H26.2933V22.4913" fill="#DA291C"/>
<path fill-rule="evenodd" clip-rule="evenodd" d="M16.8137 18.2676C14.2666 16.7113 11.9094 14.8637 9.78976 12.7621L0.880859 21.8517V25.6893H16.815L16.8137 18.2676Z" fill="#DA291C"/>
<path fill-rule="evenodd" clip-rule="evenodd" d="M52.2334 17.1177H42.7096V25.6886H39.0371V6.64104H42.7096V13.8521H52.2334V6.64104H55.9072V25.6886H52.2334V17.1177ZM65.9042 22.696C67.9712 22.696 69.3869 21.0905 69.3869 19.1028C69.3869 17.1177 67.9725 15.4849 65.9042 15.4849C63.8372 15.4849 62.4202 17.1177 62.4202 19.1028C62.4202 21.0905 63.8372 22.696 65.9042 22.696ZM65.9042 12.2193C69.9043 12.2193 72.9242 15.2938 72.9242 19.1028C72.9242 22.9118 69.9043 25.9603 65.9042 25.9603C61.9041 25.9603 58.8842 22.9131 58.8842 19.1028C58.8842 15.2938 61.9041 12.2193 65.9042 12.2193ZM85.6252 25.6886C85.1637 25.8524 84.1029 25.9616 83.4217 25.9616C81.3001 25.9616 79.7492 25.2531 78.8509 24.0558C78.171 23.1588 77.8707 21.9888 77.8707 20.1103V15.4849H74.1982V12.491H77.8707V8.81854H81.408V12.491H85.763V15.4849H81.408V20.5185C81.408 21.3349 81.5445 21.825 81.8435 22.1786C82.1971 22.5868 82.7691 22.8312 83.6401 22.8312C84.1562 22.8312 84.8361 22.7493 85.0831 22.696L85.6252 25.6886ZM96.488 17.3894C96.3801 16.2194 95.318 15.0754 93.875 15.0754C92.406 15.0754 91.21 16.1934 91.0462 17.3894H96.488ZM99.7809 23.593C98.5017 25.1166 96.4061 25.9603 94.3664 25.9603C90.4209 25.9603 87.4543 23.2394 87.4543 19.1028C87.4543 15.4303 89.9581 12.2193 93.8763 12.2193C97.5228 12.2193 100.107 15.2938 100.107 18.9676C100.107 19.3212 100.081 19.6748 100.027 19.9738H90.8824C91.0735 21.825 92.5698 23.1029 94.4483 23.1029C95.9433 23.1029 97.1419 22.2605 97.7672 21.5806L99.7809 23.593ZM102.923 25.6886H106.46V6.36934H102.924L102.923 25.6886ZM110.132 25.6886H113.668V6.36934H110.132V25.6886ZM125.535 17.3894C125.427 16.2194 124.365 15.0754 122.922 15.0754C121.453 15.0754 120.257 16.1934 120.093 17.3894H125.535ZM128.828 23.593C127.549 25.1166 125.453 25.9603 123.412 25.9603C119.468 25.9603 116.502 23.2394 116.502 19.1028C116.502 15.4303 119.005 12.2193 122.924 12.2193C126.569 12.2193 129.154 15.2938 129.154 18.9676C129.154 19.3212 129.128 19.6748 129.073 19.9738H119.93C120.121 21.825 121.617 23.1029 123.494 23.1029C124.991 23.1029 126.188 22.2605 126.814 21.5806L128.828 23.593ZM140.011 15.6214C139.766 15.5395 139.249 15.4849 138.731 15.4849C137.181 15.4849 135.957 16.6003 135.521 17.3894V25.6886H131.985V12.491H135.385V13.8248C136.174 12.8459 137.616 12.2193 139.22 12.2193C139.739 12.2193 140.038 12.2739 140.419 12.3285L140.011 15.6214ZM142.639 25.6886H146.175V12.491H142.639V25.6886ZM144.407 5.55294C145.687 5.55294 146.721 6.53184 146.721 7.81234C146.721 9.09024 145.687 10.0704 144.407 10.0704C143.129 10.0704 142.095 9.09024 142.095 7.81234C142.095 6.53184 143.128 5.55294 144.407 5.55294ZM157.901 17.3894C157.792 16.2194 156.731 15.0754 155.288 15.0754C153.819 15.0754 152.623 16.1934 152.46 17.3894H157.901ZM161.194 23.593C159.915 25.1166 157.819 25.9603 155.778 25.9603C151.834 25.9603 148.868 23.2394 148.868 19.1028C148.868 15.4303 151.371 12.2193 155.29 12.2193C158.935 12.2193 161.521 15.2938 161.521 18.9676C161.521 19.3212 161.493 19.6748 161.439 19.9738H152.296C152.487 21.825 153.983 23.1029 155.86 23.1029C157.357 23.1029 158.554 22.2605 159.181 21.5806L161.194 23.593ZM165.71 20.6004C166.799 21.7964 168.459 22.696 170.201 22.696C171.832 22.696 172.975 21.6885 172.975 20.3014C172.975 17.8522 169.439 17.5532 166.88 16.0556C165.383 15.1846 164.187 13.8794 164.187 11.7292C164.187 8.32844 167.316 6.36934 170.472 6.36934C172.404 6.36934 174.199 6.83214 175.996 8.16594L174.09 10.8855C173.328 10.1783 172.05 9.63494 170.799 9.63494C169.411 9.63494 167.861 10.2329 167.861 11.7019C167.861 14.7777 176.649 13.8248 176.649 20.2468C176.649 23.6203 173.629 25.9603 170.201 25.9603C167.642 25.9603 165.275 24.8995 163.316 23.1029L165.71 20.6004ZM191.86 12.491V25.6886H188.458V24.6278C187.424 25.5521 186.172 25.9603 184.893 25.9603C184.034 25.9622 183.186 25.7727 182.41 25.4057C181.633 25.0388 180.948 24.5035 180.404 23.8387C179.559 22.8039 179.071 21.4441 179.071 19.4837V12.4923H182.607V19.6215C182.607 20.8188 182.854 21.4181 183.26 21.8809C183.805 22.4789 184.567 22.6973 185.247 22.6973C186.743 22.6973 187.833 21.6898 188.321 21.0645V12.491H191.86ZM195.57 25.6886H199.107V12.491H195.571L195.57 25.6886ZM197.338 5.55294C198.617 5.55294 199.652 6.53184 199.652 7.81234C199.652 9.09024 198.617 10.0704 197.338 10.0704C196.06 10.0704 195.025 9.09024 195.025 7.81234C195.025 6.53184 196.059 5.55294 197.338 5.55294ZM203.271 21.6612C204.168 22.4776 205.557 22.9677 206.891 22.9677C207.842 22.9677 208.578 22.5049 208.578 21.8523C208.578 19.8659 202.182 20.5731 202.182 16.3286C202.182 13.7975 204.631 12.2206 207.244 12.2206C208.959 12.2206 210.836 12.8732 211.707 13.5531L210.047 16.1102C209.367 15.6214 208.469 15.2132 207.516 15.2132C206.537 15.2132 205.721 15.5928 205.721 16.274C205.721 17.9887 212.115 17.3075 212.115 21.8796C212.115 24.4094 209.639 25.9616 206.863 25.9616C205.039 25.9616 203.107 25.335 201.557 24.1923L203.271 21.6612ZM215.447 21.6612C216.345 22.4776 217.734 22.9677 219.066 22.9677C220.019 22.9677 220.754 22.5049 220.754 21.8523C220.754 19.8659 214.359 20.5731 214.359 16.3286C214.359 13.7975 216.808 12.2206 219.42 12.2206C221.136 12.2206 223.012 12.8732 223.883 13.5531L222.223 16.1102C221.543 15.6214 220.645 15.2132 219.693 15.2132C218.713 15.2132 217.896 15.5928 217.896 16.274C217.896 17.9887 224.292 17.3075 224.292 21.8796C224.292 24.4094 221.815 25.9616 219.04 25.9616C217.216 25.9616 215.283 25.335 213.734 24.1923L215.447 21.6612ZM235.19 17.3894C235.082 16.2194 234.021 15.0754 232.578 15.0754C231.109 15.0754 229.914 16.1934 229.748 17.3894H235.191H235.19ZM238.483 23.593C237.205 25.1166 235.11 25.9603 233.069 25.9603C229.123 25.9603 226.158 23.2394 226.158 19.1028C226.158 15.4303 228.662 12.2193 232.58 12.2193C236.225 12.2193 238.809 15.2938 238.809 18.9676C238.809 19.3212 238.783 19.6748 238.729 19.9738H229.586C229.777 21.825 231.273 23.1029 233.15 23.1029C234.647 23.1029 235.844 22.2605 236.471 21.5806L238.483 23.593Z" fill="black"/>
</g>
<defs>
<clipPath id="clip0_2449_5224">
<rect width="239.2" height="26" fill="white" transform="translate(0.568359)"/>
</clipPath>
</defs>
</svg>
