<svg width="86" height="26" viewBox="0 0 86 26" fill="none" xmlns="http://www.w3.org/2000/svg">
<path d="M26.2661 25.325C26.1912 25.2501 26.1163 25.1003 26.1912 24.9505L30.3857 1.35604C30.4606 1.05643 30.7603 0.831718 31.0599 0.831718H35.8537C36.0035 0.831718 36.0784 0.906622 36.2282 0.981525C36.3031 1.05643 36.378 1.20623 36.3031 1.35604L32.1085 24.9505C32.0336 25.2501 31.734 25.4748 31.4344 25.4748H26.6406C26.4908 25.4748 26.4159 25.3999 26.2661 25.325Z" fill="#002D55"/>
<path d="M85.451 8.39686C85.6008 8.39686 85.7506 8.47176 85.8255 8.54666C85.9004 8.62157 85.9753 8.77137 85.9004 8.92118L85.451 11.393C85.451 11.393 85.451 11.6177 85.2263 12.0671C85.0016 12.5914 84.1027 13.3405 84.1027 13.3405L75.414 21.1304H83.8031C83.9529 21.1304 84.1027 21.2053 84.1776 21.2802C84.2525 21.3551 84.3274 21.5049 84.2525 21.6547L83.8031 24.3512C83.6533 24.9504 82.9792 25.3998 82.0804 25.3998H68.0735C67.9237 25.3998 67.8488 25.3249 67.7739 25.25C67.699 25.1751 67.6241 25.0253 67.699 24.8755V24.8006L68.1484 22.179C68.1484 22.179 68.2233 21.6547 68.7476 21.0555C69.0472 20.6809 69.5716 20.2315 69.5716 20.2315L78.9344 12.2169C78.9344 12.2169 70.8449 12.2169 70.6202 12.2169C70.6202 12.0671 71.2943 8.39686 71.3692 8.32195C71.4441 8.39686 85.451 8.39686 85.451 8.39686Z" fill="#002D55"/>
<path d="M61.6313 1.2817C61.7062 0.982087 62.0058 0.757378 62.3054 0.757378H67.0992C67.249 0.757378 67.3988 0.832281 67.4737 0.907184C67.5486 0.982087 67.5486 1.05699 67.5486 1.2068V1.2817L66.2753 8.39748C66.2753 8.39748 69.6459 8.39748 69.7957 8.39748C69.7957 8.54729 69.1216 12.2175 69.0467 12.2924C68.9718 12.2924 65.5262 12.2924 65.5262 12.2924L63.2792 24.8761C63.2043 25.1757 62.9046 25.4004 62.605 25.4004H57.7363C57.5865 25.4004 57.5116 25.3255 57.3618 25.2506C57.2869 25.1757 57.212 25.0259 57.2869 24.8761L59.534 12.2175H56.2383C56.2383 12.0677 56.9124 8.39748 56.9873 8.32257C57.0622 8.32257 60.4328 8.32257 60.4328 8.32257L61.6313 1.2817Z" fill="#002D55"/>
<path d="M36.9096 24.4273C36.0108 23.3038 35.7112 21.7308 36.0108 19.7834L37.9583 8.92244C38.0332 8.62283 38.3328 8.39812 38.6324 8.39812H43.5011C43.6509 8.39812 43.7258 8.47303 43.8756 8.54793C43.9505 8.62283 44.0254 8.77264 43.9505 8.92244C43.8756 9.29696 42.2277 18.6598 42.2277 18.9594C42.2277 18.9594 42.1528 19.7085 42.2277 20.5324C42.3775 21.2065 42.9019 21.9556 44.1752 21.9556C47.3211 21.9556 47.6956 18.2104 47.6956 18.2104L49.2686 8.92244C49.3435 8.62283 49.6431 8.39812 49.9427 8.39812C49.9427 8.39812 55.3357 8.39812 55.4856 8.39812C55.4856 8.54793 53.1636 21.0567 53.1636 21.0567L53.0887 21.7308L52.789 24.4273L52.7141 24.9517C52.6392 25.2513 52.4894 25.4011 52.1898 25.4011H47.0215C46.7968 25.4011 46.647 25.2513 46.647 25.0266L46.7968 23.6034V23.4536L46.647 23.6034C44.9242 25.2513 43.1266 26.0003 40.8795 26.0003C39.1567 26.0003 37.7336 25.4011 36.9096 24.4273Z" fill="#002D55"/>
<path d="M24.6994 2.55506C25.823 3.7535 26.1975 5.32647 26.0477 7.27394C25.9728 7.57356 25.8229 7.79826 25.5233 7.79826H20.0554C19.8307 7.79826 19.6809 7.64846 19.606 7.34885L19.5311 6.97433C19.2315 5.40137 17.8832 4.57744 15.5612 4.57744C10.8424 4.57744 8.44547 8.8469 7.77134 12.8168C7.32193 15.4384 7.69644 17.6105 8.81999 19.0337C9.86863 20.3071 11.5914 20.9812 13.8385 20.9812C14.8871 20.9812 16.3852 20.8314 17.4338 20.6067C17.5836 20.6067 17.7334 20.4569 17.8083 20.382C17.8083 20.382 17.8832 20.3071 17.9581 20.0823L18.7821 15.2137H13.7636C13.6138 15.2137 13.464 15.1387 13.3891 15.0638C13.3142 14.9889 13.2393 14.8391 13.3142 14.6893L13.9134 11.6932C13.9883 11.3936 14.213 11.1689 14.5126 11.1689H24.8492C24.999 11.1689 25.1488 11.2438 25.2237 11.3187C25.2986 11.3936 25.3735 11.5434 25.2986 11.6932L23.3512 22.7788C23.3512 22.7788 23.2763 23.3781 22.9017 23.8275C22.4523 24.2769 21.7782 24.4267 21.7782 24.4267L21.3288 24.5016C19.4562 24.951 15.9358 25.7001 10.7675 25.7001C7.09722 25.5503 4.40071 24.4267 2.67795 22.3294C1.4046 20.7565 0.730469 18.5843 0.730469 16.0376C0.730469 15.0638 0.805371 14.0152 1.03008 12.8917C2.45324 4.95195 7.62154 0.233065 15.3365 0.00835638C18.4825 -0.0665466 22.6021 0.307969 24.6994 2.55506Z" fill="#002D55"/>
</svg>
