<svg width="139" height="32" viewBox="0 0 139 32" fill="none" xmlns="http://www.w3.org/2000/svg">
<g clip-path="url(#clip0_2449_5221)">
<path d="M24.5959 31.3712C18.6284 31.3712 14.7711 27.2 14.7711 20.7421C14.7711 14.259 18.6284 10.0714 24.5959 10.0714C30.5505 10.0714 34.5505 14.3585 34.5505 20.7412C34.5505 27.2 30.6413 31.3712 24.5959 31.3712ZM24.5959 14.0013C21.4089 14.0013 19.5062 16.5181 19.5062 20.7403C19.5062 24.8346 21.504 27.4802 24.5968 27.4802C27.866 27.4802 29.8145 24.9617 29.8145 20.7403C29.8145 16.6461 27.7674 14.0004 24.5977 14.0004L24.5959 14.0013ZM44.7473 31.2C41.5905 31.2 39.3869 30.7217 36.6496 29.8958L36.3382 29.8006V0.738595L41.0284 0V12.1254C42.7555 10.6179 44.6245 9.88108 46.7192 9.88108C51.8798 9.88108 55.2147 13.6917 55.2147 20.0761C55.2147 27.2752 50.778 31.2 44.7473 31.2ZM41.0284 26.5081C42.1095 26.8861 43.0089 27.0651 44.704 27.0651C48.0969 27.0651 50.4796 25.0871 50.4796 20.2482C50.4796 16.2889 48.826 14.1457 46.1613 14.1457C44.4143 14.1457 42.6863 15.1732 41.0284 17.2048V26.5081ZM66.3015 31.3081C60.8615 31.3081 57.1278 26.9639 57.1278 20.7135C57.1278 14.4605 60.9436 10.0757 66.4251 10.0757C68.7793 10.0757 70.7667 10.6845 72.269 11.8227L71.9862 13.7712C70.4433 12.5518 68.6565 11.7821 66.3836 11.7821C61.9987 11.7821 59.0357 15.5157 59.0357 20.6711C59.0357 25.8283 61.9996 29.6026 66.3845 29.6026C68.6989 29.6026 70.7287 28.7118 72.3521 27.4517L72.5959 29.2791C71.0911 30.4164 68.8199 31.3081 66.3015 31.3081ZM94.1423 11.7812C89.7185 11.7812 86.8359 15.3937 86.8359 20.672C86.8359 26.0714 89.7592 29.6017 94.1423 29.6017C98.6093 29.6017 101.491 26.0714 101.491 20.6711C101.491 15.3955 98.6093 11.7821 94.1423 11.7821M94.1034 31.309C88.6634 31.309 84.9289 26.9648 84.9289 20.7144C84.9289 14.4614 88.743 10.0765 94.1423 10.0765C99.5823 10.0765 103.4 14.3801 103.4 20.6711C103.4 26.9258 99.5434 31.309 94.1034 31.309ZM127.973 12.1462H124.358V29.2385H127.973C133.249 29.2385 136.659 26.355 136.659 20.672C136.659 15.1516 133.128 12.1462 127.972 12.1462M127.849 30.9423H122.45V10.4415H127.89C134.711 10.4415 138.567 14.541 138.567 20.6711C138.567 26.9648 134.386 30.9423 127.849 30.9423ZM118.458 10.1405V23.1896C118.458 27.0867 116.429 29.5637 112.655 29.5637C108.878 29.5637 106.929 26.8826 106.929 23.0253V10.4415L105.102 10.1544V23.3107C105.102 28.0216 107.863 31.2675 112.654 31.2675C117.444 31.2675 120.367 28.1021 120.367 23.1481V10.4406L118.458 10.1405ZM84.7248 29.2385H76.768V10.1405L74.8602 10.4406V30.9423H84.9678L84.7248 29.2385ZM3.99053 31.2424C2.96307 31.2424 1.93648 31.0997 1.25756 30.9786L0.950534 30.925L0.189453 26.3066L0.844156 26.4778C1.72372 26.707 2.56351 26.8497 4.03378 26.8497C6.6941 26.8497 7.87983 25.6242 7.87983 22.8739V4.96778L12.7879 4.19546V23.2164C12.7879 28.3918 9.66318 31.2424 3.99053 31.2424Z" fill="#00829A"/>
</g>
<defs>
<clipPath id="clip0_2449_5221">
<rect width="138.378" height="32" fill="white" transform="translate(0.189453)"/>
</clipPath>
</defs>
</svg>
