<svg width="1920" height="615" viewBox="0 0 1920 615" fill="none" xmlns="http://www.w3.org/2000/svg">
<g clip-path="url(#clip0_1796_22422)">
<rect width="1920" height="615" fill="#000034"/>
<g filter="url(#filter0_f_1796_22422)">
<path d="M623.336 94.6422C772.039 30.9237 808.414 -121.303 704.582 -245.365C600.75 -369.427 396.031 -418.346 247.328 -354.627L159.251 -316.886C10.5487 -253.168 -25.8263 -100.941 78.0054 23.1211C181.837 147.183 386.557 196.102 535.259 132.383L623.336 94.6422Z" fill="url(#paint0_radial_1796_22422)"/>
</g>
<g filter="url(#filter1_f_1796_22422)">
<path d="M2201.34 749.642C2350.04 685.924 2386.41 533.697 2282.58 409.635C2178.75 285.573 1974.03 236.654 1825.33 300.373L1737.25 338.114C1588.55 401.832 1552.17 554.059 1656.01 678.121C1759.84 802.183 1964.56 851.102 2113.26 787.383L2201.34 749.642Z" fill="url(#paint1_radial_1796_22422)"/>
</g>
<circle opacity="0.05" cx="1968.5" cy="617.5" r="291.5" stroke="white" stroke-width="10"/>
<circle opacity="0.05" cx="1968.5" cy="617.5" r="200.5" stroke="white" stroke-width="10"/>
</g>
<defs>
<filter id="filter0_f_1796_22422" x="-208.003" y="-609.414" width="1198.59" height="996.585" filterUnits="userSpaceOnUse" color-interpolation-filters="sRGB">
<feFlood flood-opacity="0" result="BackgroundImageFix"/>
<feBlend mode="normal" in="SourceGraphic" in2="BackgroundImageFix" result="shape"/>
<feGaussianBlur stdDeviation="113.419" result="effect1_foregroundBlur_1796_22422"/>
</filter>
<filter id="filter1_f_1796_22422" x="1370" y="45.5856" width="1198.59" height="996.585" filterUnits="userSpaceOnUse" color-interpolation-filters="sRGB">
<feFlood flood-opacity="0" result="BackgroundImageFix"/>
<feBlend mode="normal" in="SourceGraphic" in2="BackgroundImageFix" result="shape"/>
<feGaussianBlur stdDeviation="113.419" result="effect1_foregroundBlur_1796_22422"/>
</filter>
<radialGradient id="paint0_radial_1796_22422" cx="0" cy="0" r="1" gradientUnits="userSpaceOnUse" gradientTransform="translate(350.486 -63.0786) rotate(-154.057) scale(350.901 297.503)">
<stop stop-color="#00E2E2"/>
<stop offset="1" stop-color="#2C32FE" stop-opacity="0.31"/>
</radialGradient>
<radialGradient id="paint1_radial_1796_22422" cx="0" cy="0" r="1" gradientUnits="userSpaceOnUse" gradientTransform="translate(1928.49 591.921) rotate(-154.057) scale(350.901 297.503)">
<stop stop-color="#00E2E2"/>
<stop offset="1" stop-color="#2C32FE" stop-opacity="0.31"/>
</radialGradient>
<clipPath id="clip0_1796_22422">
<rect width="1920" height="615" fill="white"/>
</clipPath>
</defs>
</svg>
