<svg width="60" height="60" viewBox="0 0 60 60" fill="none" xmlns="http://www.w3.org/2000/svg">
<path d="M47.5 2H12.5C9.18601 2.00404 6.00889 3.34625 3.66555 5.7322C1.3222 8.11815 0.00396964 11.353 0 14.7273L0 45.2727C0.00396964 48.647 1.3222 51.8819 3.66555 54.2678C6.00889 56.6538 9.18601 57.996 12.5 58H47.5C50.814 57.996 53.9911 56.6538 56.3344 54.2678C58.6778 51.8819 59.996 48.647 60 45.2727V14.7273C59.996 11.353 58.6778 8.11815 56.3344 5.7322C53.9911 3.34625 50.814 2.00404 47.5 2ZM12.5 7.09091H47.5C48.997 7.09391 50.4588 7.55295 51.6974 8.40896C52.936 9.26496 53.8946 10.4788 54.45 11.8942L35.305 31.3898C33.8961 32.8186 31.9885 33.6208 30 33.6208C28.0115 33.6208 26.1039 32.8186 24.695 31.3898L5.55 11.8942C6.10537 10.4788 7.06403 9.26496 8.30262 8.40896C9.5412 7.55295 11.003 7.09391 12.5 7.09091ZM47.5 52.9091H12.5C10.5109 52.9091 8.60322 52.1046 7.1967 50.6725C5.79018 49.2404 5 47.298 5 45.2727V18.5455L21.16 34.9891C23.5066 37.3723 26.6856 38.7106 30 38.7106C33.3144 38.7106 36.4934 37.3723 38.84 34.9891L55 18.5455V45.2727C55 47.298 54.2098 49.2404 52.8033 50.6725C51.3968 52.1046 49.4891 52.9091 47.5 52.9091Z" fill="#114FA1"/>
</svg>
