<svg width="96" height="96" viewBox="0 0 96 96" fill="none" xmlns="http://www.w3.org/2000/svg">
<path d="M48.1691 63.5933C41.6165 63.5933 36.3047 58.2814 36.3047 51.7289V44.2712C36.3047 37.7187 41.6165 32.4068 48.1691 32.4068C54.7216 32.4068 60.0335 37.7187 60.0335 44.2712V51.7289C60.0335 58.2814 54.7216 63.5933 48.1691 63.5933Z" stroke="#114FA1" stroke-width="1.80791" stroke-miterlimit="10"/>
<path d="M60.0339 28.1695V49.6102C60.0339 57.3327 66.2944 63.5932 74.0169 63.5932C81.7395 63.5932 88 57.3327 88 49.6102V48.3309C88 26.1834 69.8788 7.85545 47.7319 8.00088C25.6334 8.14579 7.78884 26.2109 8.00189 48.3929C8.21324 70.41 26.0009 88.0102 48.0188 88C56.0809 87.9964 63.5851 85.6075 69.8644 81.5008" stroke="#114FA1" stroke-width="1.80791" stroke-miterlimit="10"/>
</svg>
