<svg width="60" height="60" viewBox="0 0 60 60" fill="none" xmlns="http://www.w3.org/2000/svg">
<path d="M30.5002 40.0003C31.6643 40.0025 32.8129 39.7338 33.8551 39.2153L38.8552 36.7153C41.4037 35.45 43.0112 32.8457 43.0002 30.0005V22.583C43.009 19.7402 41.4017 17.1394 38.8552 15.8757L33.8551 13.3757C31.7426 12.3257 29.2602 12.3257 27.1477 13.3757L22.1476 15.8757C19.6002 17.1387 17.9918 19.7397 18.0001 22.583V30.0005C17.991 32.844 19.5982 35.4457 22.1452 36.7104L27.1452 39.2104C28.187 39.7305 29.3357 40.001 30.5002 40.0003ZM23.0002 30.0005V22.583C23.0042 22.328 23.0472 22.075 23.1277 21.833L28.5777 24.558C29.788 25.1629 31.2124 25.1629 32.4228 24.558L37.8728 21.833C37.9533 22.075 37.9963 22.328 38.0003 22.583V30.0005C38.0043 30.949 37.4679 31.8171 36.6178 32.2379L31.6178 34.7378C30.9128 35.0867 30.0853 35.0867 29.3803 34.7378L24.3803 32.2379C23.531 31.8164 22.9957 30.9485 23.0002 30.0005ZM48.0001 55.0001H41.2276L49.9451 46.9452C60.6848 36.206 60.685 18.7943 49.9457 8.05476C39.2064 -2.68476 21.7945 -2.68488 11.0549 8.05418C0.315249 18.7932 0.315013 36.2052 11.0543 46.9446C11.0779 46.9682 19.7727 55.0001 19.7727 55.0001H13.0002C11.6195 55.0001 10.5002 56.1194 10.5002 57.5001C10.5002 58.8808 11.6195 60 13.0002 60H48.0003C49.381 60 50.5002 58.8808 50.5002 57.5001C50.5002 56.1195 49.3808 55.0001 48.0001 55.0001ZM14.5902 11.5906C23.3577 2.78385 37.6046 2.75197 46.4114 11.5194C55.2183 20.2868 55.2502 34.5335 46.4827 43.3402L36.5202 52.5426C33.1199 55.7475 27.8054 55.7289 24.4278 52.5001L14.5902 43.4102C5.81697 34.6178 5.81709 20.3831 14.5902 11.5906Z" fill="#114FA1"/>
</svg>
