<svg width="72" height="72" viewBox="0 0 72 72" fill="none" xmlns="http://www.w3.org/2000/svg">
<path fill-rule="evenodd" clip-rule="evenodd" d="M16.3748 63.7157C16.3358 63.6344 16.3079 63.5478 16.2922 63.458C16.2579 63.2617 16.2833 63.0597 16.3653 62.878C17.6152 60.1126 19.6363 57.7664 22.186 56.1208C24.7358 54.4751 27.7061 53.5997 30.7409 53.5996H42.6856C45.7205 53.5991 48.6911 54.4742 51.241 56.12C53.7908 57.7657 55.8117 60.1123 57.0612 62.878C57.1143 62.9958 57.1437 63.1221 57.1484 63.2499C63.7822 57.4771 67.9754 48.9721 67.9754 39.4877C67.9754 22.0975 53.8779 8 36.4877 8C19.0975 8 5 22.0975 5 39.4877C5 49.2306 9.42494 57.9399 16.3748 63.7157ZM36.7046 46.5576C41.6824 46.5576 45.7177 42.5223 45.7177 37.5444C45.7177 32.5666 41.6824 28.5312 36.7046 28.5312C31.7267 28.5312 27.6914 32.5666 27.6914 37.5444C27.6914 42.5223 31.7267 46.5576 36.7046 46.5576Z" fill="#FFD466"/>
<path fill-rule="evenodd" clip-rule="evenodd" d="M65.4304 27.0659C62.8358 29.5054 59.3424 31 55.5 31C47.4919 31 41 24.5081 41 16.5C41 13.641 41.8274 10.9753 43.2559 8.72919C53.2541 10.9192 61.4741 17.8599 65.4304 27.0659Z" fill="#FF8B05"/>
<path fill-rule="evenodd" clip-rule="evenodd" d="M65.4304 27.0659C68.2433 24.4211 69.9999 20.6657 69.9999 16.5C69.9999 8.49187 63.5081 2 55.4999 2C50.3508 2 45.8286 4.68395 43.2559 8.72918C53.2541 10.9192 61.4741 17.8599 65.4304 27.0659Z" fill="#FF8B05" fill-opacity="0.5"/>
<path fill-rule="evenodd" clip-rule="evenodd" d="M48.4433 17.6668L52.3641 21.5593C52.5046 21.699 52.6714 21.8099 52.8551 21.8855C53.0387 21.9611 53.2356 22 53.4344 22C53.6332 22 53.8301 21.9611 54.0137 21.8855C54.1974 21.8099 54.3642 21.699 54.5047 21.5593L62.5567 13.5653C62.6972 13.4257 62.8087 13.2601 62.8848 13.0778C62.9608 12.8954 63 12.7 63 12.5027C63 12.3054 62.9608 12.11 62.8848 11.9276C62.8087 11.7453 62.6972 11.5797 62.5567 11.4401C62.4161 11.3006 62.2493 11.1899 62.0656 11.1144C61.882 11.0389 61.6852 11 61.4864 11C61.2876 11 61.0908 11.0389 60.9072 11.1144C60.7235 11.1899 60.5567 11.3006 60.4161 11.4401L53.4344 18.3716L50.5839 15.5416C50.3 15.2598 49.915 15.1015 49.5136 15.1015C49.1122 15.1015 48.7272 15.2598 48.4433 15.5416C48.1595 15.8234 48 16.2056 48 16.6042C48 17.0027 48.1595 17.3849 48.4433 17.6668Z" fill="white"/>
</svg>
