<svg width="73" height="72" viewBox="0 0 73 72" fill="none" xmlns="http://www.w3.org/2000/svg">
<path d="M47.5 7C48.6046 7 49.5 7.89543 49.5 9V11H57.5C61.9183 11 65.5 14.5817 65.5 19V40C65.5 52.1503 55.6503 62 43.5 62H15.5C11.0817 62 7.5 58.4183 7.5 54V19C7.5 14.5817 11.0817 11 15.5 11H23.5V9C23.5 7.89543 24.3954 7 25.5 7C26.6046 7 27.5 7.89543 27.5 9V11H45.5V9C45.5 7.89543 46.3954 7 47.5 7ZM17.5 15C14.1863 15 11.5 17.6863 11.5 21V26H61.5V21C61.5 17.6863 58.8137 15 55.5 15H49.5V17C49.5 18.1046 48.6046 19 47.5 19C46.3954 19 45.5 18.1046 45.5 17V15H27.5V17C27.5 18.1046 26.6046 19 25.5 19C24.3954 19 23.5 18.1046 23.5 17V15H17.5Z" fill="#FFD466"/>
<path fill-rule="evenodd" clip-rule="evenodd" d="M65.0979 44.2087C63.134 54.3457 54.2109 62 43.5 62H43.035C42.0529 60.0449 41.5 57.837 41.5 55.5C41.5 47.4919 47.9919 41 56 41C59.4454 41 62.6101 42.2017 65.0979 44.2087Z" fill="#FF8B05"/>
<path fill-rule="evenodd" clip-rule="evenodd" d="M43.0352 62.0003C45.4184 66.7446 50.3291 70.0003 56.0002 70.0003C64.0083 70.0003 70.5002 63.5084 70.5002 55.5003C70.5002 50.9375 68.3927 46.867 65.098 44.209C63.1342 54.346 54.2111 62.0003 43.5002 62.0003H43.0352Z" fill="#FF8B05" fill-opacity="0.5"/>
<path fill-rule="evenodd" clip-rule="evenodd" d="M55.5 46.5C56.3284 46.5 57 47.1716 57 48V56.5H65.5C66.3284 56.5 67 57.1716 67 58C67 58.8284 66.3284 59.5 65.5 59.5H55.5C54.6716 59.5 54 58.8284 54 58V48C54 47.1716 54.6716 46.5 55.5 46.5Z" fill="white"/>
</svg>
