<svg width="96" height="96" viewBox="0 0 96 96" fill="none" xmlns="http://www.w3.org/2000/svg">
<path d="M33.7495 30.5281C36.6539 27.5844 36.6539 22.8116 33.7495 19.8681L23.2315 9.20779C20.3271 6.26406 15.6179 6.26406 12.7134 9.20779C1.09552 20.9827 1.09552 40.0735 12.7134 51.8485L33.7495 73.1688C45.3674 84.9437 64.2036 84.9437 75.8215 73.1688C78.7262 70.2251 78.7262 65.4525 75.8215 62.5087L65.3036 51.8485C62.3991 48.9047 57.69 48.9047 54.7855 51.8485L49.5265 57.1785C46.622 60.1222 41.9129 60.1222 39.0084 57.1785L28.4905 46.5184C25.586 43.5747 25.586 38.8019 28.4905 35.8582L33.7495 30.5281Z" stroke="#114FA1" stroke-width="2" stroke-miterlimit="10" stroke-linecap="round" stroke-linejoin="round"/>
<path d="M85 82C88.8661 82 92 85.1341 92 89" stroke="#114FA1" stroke-width="2" stroke-miterlimit="10" stroke-linecap="round" stroke-linejoin="round"/>
</svg>
