<svg width="60" height="60" viewBox="0 0 60 60" fill="none" xmlns="http://www.w3.org/2000/svg">
<g clip-path="url(#clip0_2090_29)">
<path d="M32.4552 2.50811C32.4552 1.84398 32.719 1.20705 33.1886 0.737437C33.6582 0.267824 34.2951 0.00399899 34.9592 0.00399899C41.5982 0.01129 47.9632 2.65189 52.6577 7.34643C57.3522 12.041 59.9927 18.4061 60 25.0451C60 25.7093 59.7362 26.3462 59.2666 26.8158C58.797 27.2854 58.16 27.5492 57.4959 27.5492C56.8318 27.5492 56.1949 27.2854 55.7253 26.8158C55.2557 26.3462 54.9918 25.7093 54.9918 25.0451C54.9859 19.7339 52.8734 14.6419 49.1178 10.8863C45.3623 7.13071 40.2704 5.01819 34.9592 5.01223C34.2951 5.01223 33.6582 4.7484 33.1886 4.27879C32.719 3.80918 32.4552 3.17224 32.4552 2.50811V2.50811ZM34.9592 15.0287C37.6157 15.0287 40.1634 16.084 42.0418 17.9624C43.9202 19.8409 44.9755 22.3886 44.9755 25.0451C44.9755 25.7093 45.2394 26.3462 45.709 26.8158C46.1786 27.2854 46.8155 27.5492 47.4796 27.5492C48.1437 27.5492 48.7807 27.2854 49.2503 26.8158C49.7199 26.3462 49.9837 25.7093 49.9837 25.0451C49.9797 21.0616 48.3955 17.2423 45.5787 14.4255C42.762 11.6087 38.9427 10.0244 34.9592 10.0205C34.2951 10.0205 33.6582 10.2843 33.1886 10.7539C32.719 11.2235 32.4552 11.8604 32.4552 12.5246C32.4552 13.1887 32.719 13.8256 33.1886 14.2952C33.6582 14.7649 34.2951 15.0287 34.9592 15.0287V15.0287ZM57.7288 41.9204C59.1799 43.3755 59.9948 45.3468 59.9948 47.4019C59.9948 49.4569 59.1799 51.4282 57.7288 52.8834L55.4501 55.5102C34.9417 75.1449 -14.9646 25.2505 4.36692 4.67667L7.24661 2.17256C8.7034 0.761937 10.657 -0.0184151 12.6847 0.000330066C14.7125 0.0190753 16.6513 0.835411 18.0817 2.27273C18.1594 2.35035 22.7994 8.37775 22.7994 8.37775C24.1762 9.8242 24.9427 11.7456 24.9394 13.7426C24.9362 15.7395 24.1634 17.6584 22.7819 19.1004L19.8822 22.7464C21.4869 26.6455 23.8463 30.1892 26.8248 33.1737C29.8032 36.1582 33.3421 38.5248 37.2379 40.1374L40.9064 37.2201C42.3485 35.8397 44.267 35.0678 46.2634 35.065C48.2597 35.0622 50.1804 35.8287 51.6264 37.2051C51.6264 37.2051 57.6512 41.8427 57.7288 41.9204ZM54.2832 45.5613C54.2832 45.5613 48.2909 40.9513 48.2133 40.8736C47.6974 40.3621 47.0004 40.0751 46.2739 40.0751C45.5474 40.0751 44.8504 40.3621 44.3345 40.8736C44.2669 40.9437 39.2162 44.9679 39.2162 44.9679C38.8758 45.2388 38.4707 45.4164 38.0409 45.4831C37.611 45.5498 37.1712 45.5035 36.7647 45.3485C31.7176 43.4693 27.1333 40.5274 23.3224 36.722C19.5114 32.9166 16.5628 28.3366 14.6762 23.2923C14.5089 22.8802 14.4544 22.4311 14.5182 21.991C14.582 21.5509 14.7619 21.1357 15.0393 20.7881C15.0393 20.7881 19.0633 15.7348 19.131 15.6697C19.6425 15.1538 19.9295 14.4568 19.9295 13.7303C19.9295 13.0038 19.6425 12.3067 19.131 11.7909C19.0533 11.7157 14.4433 5.71839 14.4433 5.71839C13.9197 5.24888 13.2364 4.99744 12.5333 5.0156C11.8303 5.03376 11.1608 5.32014 10.6622 5.81605L7.78248 8.32016C-6.34552 25.3081 36.9024 66.1577 51.7891 52.0896L54.0703 49.4602C54.6049 48.9651 54.926 48.2814 54.9657 47.5539C55.0054 46.8263 54.7607 46.1117 54.2832 45.5613V45.5613Z" fill="#114FA1"/>
</g>
<defs>
<clipPath id="clip0_2090_29">
<rect width="60" height="60" fill="white"/>
</clipPath>
</defs>
</svg>
